<?xml version="1.0" encoding="utf-8"?>
<svg viewBox="0 0 570 560" xmlns="http://www.w3.org/2000/svg" xmlns:xlink="http://www.w3.org/1999/xlink" xmlns:bx="https://boxy-svg.com">
  <defs>
    <symbol id="document" viewBox="0 0 100 141">
      <g transform="matrix(1, 0, 0, 1, 0, 0)">
        <g>
          <polygon style="stroke: rgb(136, 136, 136); fill: rgb(255, 255, 255);" points="0 0 100 0 100 121 90 111 70 141 0 141"/>
          <polygon style="stroke: rgb(136, 136, 136); fill: rgb(224, 224, 224);" points="100 121 70 141 90 111"/>
          <line style="stroke: rgb(136, 136, 136); stroke-width: 2; fill: rgb(255, 255, 255);" x1="10" y1="20" x2="90" y2="20"/>
          <line style="stroke: rgb(136, 136, 136); stroke-width: 2; fill: rgb(255, 255, 255);" x1="10" y1="40" x2="80" y2="40"/>
          <line style="stroke: rgb(136, 136, 136); stroke-width: 2; fill: rgb(255, 255, 255);" x1="10" y1="60" x2="90" y2="60"/>
          <line style="stroke: rgb(136, 136, 136); stroke-width: 2; fill: rgb(255, 255, 255);" x1="10" y1="80" x2="80" y2="80"/>
          <line style="stroke: rgb(136, 136, 136); stroke-width: 2; fill: rgb(255, 255, 255);" x1="10" y1="100" x2="70" y2="100"/>
          <line style="stroke: rgb(136, 136, 136); stroke-width: 2; fill: rgb(255, 255, 255);" x1="10" y1="120" x2="50" y2="120"/>
        </g>
      </g>
    </symbol>
    <symbol id="automation" viewBox="0 0 157.9764 109.2601">
      <path transform="matrix(0.66749107837677, -0.25428399443626404, -0.25428399443626404, -0.66749107837677, -77.55552625656128, 346.6594543457031)" d="M 284.82 262 L 295.18 262 L 297.468 277.014 A 28 28 0 0 1 303.801 279.638 L 316.036 270.639 L 323.361 277.964 L 314.362 290.199 A 28 28 0 0 1 316.986 296.532 L 332 298.82 L 332 309.18 L 316.986 311.468 A 28 28 0 0 1 314.362 317.801 L 323.361 330.036 L 316.036 337.361 L 303.801 328.362 A 28 28 0 0 1 297.468 330.986 L 295.18 346 L 284.82 346 L 282.532 330.986 A 28 28 0 0 1 276.199 328.362 L 263.964 337.361 L 256.639 330.036 L 265.638 317.801 A 28 28 0 0 1 263.014 311.468 L 248 309.18 L 248 298.82 L 263.014 296.532 A 28 28 0 0 1 265.638 290.199 L 256.639 277.964 L 263.964 270.639 L 276.199 279.638 A 28 28 0 0 1 282.532 277.014 Z M 290 290 A 14 14 0 0 0 290 318 A 14 14 0 0 0 290 290" style="fill: rgb(216, 216, 216);" bx:shape="cog 290 304 14 28 42 0.375 8 1@b555a3d7"/>
      <path transform="matrix(0.6588370203971863, 0.275939017534256, 0.275939017534256, -0.6588370203971863, -156.23238325119019, 190.26361083984372)" d="M 284.82 262 L 295.18 262 L 297.468 277.014 A 28 28 0 0 1 303.801 279.638 L 316.036 270.639 L 323.361 277.964 L 314.362 290.199 A 28 28 0 0 1 316.986 296.532 L 332 298.82 L 332 309.18 L 316.986 311.468 A 28 28 0 0 1 314.362 317.801 L 323.361 330.036 L 316.036 337.361 L 303.801 328.362 A 28 28 0 0 1 297.468 330.986 L 295.18 346 L 284.82 346 L 282.532 330.986 A 28 28 0 0 1 276.199 328.362 L 263.964 337.361 L 256.639 330.036 L 265.638 317.801 A 28 28 0 0 1 263.014 311.468 L 248 309.18 L 248 298.82 L 263.014 296.532 A 28 28 0 0 1 265.638 290.199 L 256.639 277.964 L 263.964 270.639 L 276.199 279.638 A 28 28 0 0 1 282.532 277.014 Z M 290 290 A 14 14 0 0 0 290 318 A 14 14 0 0 0 290 290" style="fill: rgb(216, 216, 216);" bx:shape="cog 290 304 14 28 42 0.375 8 1@b555a3d7"/>
      <path transform="matrix(0.7142859697341918, 0, 0, -0.7142859697341918, -128.42832136154175, 247.14294433593747)" d="M 284.82 262 L 295.18 262 L 297.468 277.014 A 28 28 0 0 1 303.801 279.638 L 316.036 270.639 L 323.361 277.964 L 314.362 290.199 A 28 28 0 0 1 316.986 296.532 L 332 298.82 L 332 309.18 L 316.986 311.468 A 28 28 0 0 1 314.362 317.801 L 323.361 330.036 L 316.036 337.361 L 303.801 328.362 A 28 28 0 0 1 297.468 330.986 L 295.18 346 L 284.82 346 L 282.532 330.986 A 28 28 0 0 1 276.199 328.362 L 263.964 337.361 L 256.639 330.036 L 265.638 317.801 A 28 28 0 0 1 263.014 311.468 L 248 309.18 L 248 298.82 L 263.014 296.532 A 28 28 0 0 1 265.638 290.199 L 256.639 277.964 L 263.964 270.639 L 276.199 279.638 A 28 28 0 0 1 282.532 277.014 Z M 290 290 A 14 14 0 0 0 290 318 A 14 14 0 0 0 290 290" style="fill: rgb(216, 216, 216);" bx:shape="cog 290 304 14 28 42 0.375 8 1@b555a3d7"/>
    </symbol>
    <symbol id="model" viewBox="0 0 100 141">
      <rect x="0" y="0" width="100" height="141" style="fill: rgb(255, 255, 255); stroke: rgb(221, 221, 221);" transform="matrix(1, 0, 0, 1, 0, 0)"/>
      <rect x="10" width="20" height="20" style="fill: rgb(216, 216, 216);" y="5" transform="matrix(1, 0, 0, 1, 0, 0)"/>
      <rect x="40" y="25" width="20" height="20" style="fill: rgb(216, 216, 216);" transform="matrix(1, 0, 0, 1, 0, 0)"/>
      <rect x="70" y="45" width="20" height="20" style="fill: rgb(216, 216, 216);" transform="matrix(1, 0, 0, 1, 0, 0)"/>
      <rect x="70" y="75" width="20" height="20" style="fill: rgb(216, 216, 216);" transform="matrix(1, 0, 0, 1, 0, 0)"/>
      <rect x="40" y="95" width="20" height="20" style="fill: rgb(216, 216, 216);" transform="matrix(1, 0, 0, 1, 0, 0)"/>
      <rect x="70" y="115" width="20" height="20" style="fill: rgb(216, 216, 216);" transform="matrix(1, 0, 0, 1, 0, 0)"/>
      <line style="fill: none; stroke: rgb(136, 136, 136);" x1="20" y1="25" x2="20" y2="105" transform="matrix(1, 0, 0, 1, 0, 0)"/>
      <line style="fill: none; stroke: rgb(136, 136, 136);" x1="20" y1="35" x2="40" y2="35" transform="matrix(1, 0, 0, 1, 0, 0)"/>
      <line style="fill: none; stroke: rgb(136, 136, 136);" x1="20" y1="105" x2="40" y2="105" transform="matrix(1, 0, 0, 1, 0, 0)"/>
      <line style="fill: none; stroke: rgb(136, 136, 136);" x1="50" y1="45" x2="50" y2="85" transform="matrix(1, 0, 0, 1, 0, 0)"/>
      <line style="fill: none; stroke: rgb(136, 136, 136);" x1="50" y1="55" x2="70" y2="55" transform="matrix(1, 0, 0, 1, 0, 0)"/>
      <line style="fill: none; stroke: rgb(136, 136, 136);" x1="50" y1="85" x2="70" y2="85" transform="matrix(1, 0, 0, 1, 0, 0)"/>
      <line style="fill: none; stroke: rgb(136, 136, 136);" x1="50" y1="125" x2="70" y2="125" transform="matrix(1, 0, 0, 1, 0, 0)"/>
      <line style="fill: none; stroke: rgb(136, 136, 136);" x1="50" y1="115" x2="50" y2="125" transform="matrix(1, 0, 0, 1, 0, 0)"/>
    </symbol>
    <symbol id="process1" viewBox="0 0 140 80">
      <polygon style="fill: rgb(216, 216, 216);" points="0 0 120 0 140 40 120 80 0 80" transform="matrix(1, 0, 0, 1, 0, 0)"/>
    </symbol>
    <symbol id="process2" viewBox="0 0 140 80">
      <polygon style="fill: rgb(216, 216, 216);" points="0 0 120 0 140 40 120 80 0 80 20 40" transform="matrix(1, 0, 0, 1, 0, 0)"/>
    </symbol>
    <symbol id="cloud" viewBox="0 0 140 100">
      <path d="M 115 40 C 115 40 115 40 115 40 C 129.188 42.794 140 55.134 140 70 C 140 86.569 126.569 100 110 100 L 30 100 C 13.431 100 0 86.569 0 70 C 0 60.577 4.344 52.169 11.139 46.669 C 10.401 44.583 10 42.339 10 40 C 10 28.954 18.954 20 30 20 C 33.302 20 36.416 20.8 39.161 22.217 C 45.707 9.049 59.297 0 75 0 C 97.091 0 115 17.909 115 40 Z" style="fill: rgb(216, 216, 216);"/>
    </symbol>
    <symbol id="database" viewBox="0 0 100 141">
      <ellipse style="fill: rgb(216, 216, 216);" cx="50" cy="121" rx="50" ry="20" transform="matrix(1, 0, 0, 1, 0, 0)"/>
      <rect x="0" y="20" width="100" height="101" style="fill: rgb(216, 216, 216);" transform="matrix(1, 0, 0, 1, 0, 0)"/>
      <ellipse style="fill: rgb(192, 192, 192);" cx="50" cy="20" rx="50" ry="20" transform="matrix(1, 0, 0, 1, 0, 0)"/>
    </symbol>
    <symbol id="server" viewBox="0 0 140 100">
      <g transform="matrix(1, 0, 0, 1, 0, 0)">
        <rect width="120" height="80" y="20" style="fill: rgb(238, 238, 238); stroke: rgb(208, 208, 208); stroke-linejoin: round;"/>
        <polygon style="fill: rgb(221, 221, 221); stroke: rgb(208, 208, 208); stroke-linejoin: round;" points="0 20 20 0 140 0 120 20"/>
        <polygon style="fill: rgb(221, 221, 221); stroke: rgb(208, 208, 208); stroke-linejoin: round;" points="140 0 140 80 120 100 120 20"/>
        <line style="stroke: rgb(208, 208, 208)" x1="0" y1="100" x2="20" y2="80"/>
        <line style="stroke: rgb(208, 208, 208)" x1="120" y1="80" x2="20" y2="80"/>
        <line style="stroke: rgb(208, 208, 208)" x1="20" y1="20" x2="20" y2="80"/>
      </g>
    </symbol>
    <symbol id="application" viewBox="0 0 140 100">
      <g transform="matrix(1, 0, 0, 1, 0, 0)">
        <polygon style="fill: rgb(221, 221, 221); stroke-linejoin: round; stroke: rgb(200, 200, 200); stroke-width: 1.594; vector-effect: non-scaling-stroke;" points="84 38 100 30 116 38 100 46"/>
        <polygon style="fill: rgb(216, 216, 216); stroke-linejoin: round; stroke: rgb(200, 200, 200); stroke-width: 1.594; vector-effect: non-scaling-stroke;" points="84 38 100 46 100 62 84 54"/>
        <polygon style="fill: rgb(216, 216, 216); stroke-linejoin: round; stroke: rgb(200, 200, 200); stroke-width: 1.594; vector-effect: non-scaling-stroke;" points="116 38 100 46 100 62 116 54"/>
      </g>
    </symbol>
    <symbol id="disks" viewBox="0 0 140 100">
      <g transform="matrix(1, 0, 0, 1, 0, 0)">
        <ellipse cx="100" cy="90" rx="16" ry="8" style="fill: rgb(204, 204, 204); stroke: rgb(187, 187, 187);"/>
        <ellipse cx="100" cy="86" rx="16" ry="8" style="fill: rgb(204, 204, 204); stroke: rgb(187, 187, 187);"/>
        <ellipse cx="100" cy="82" rx="16" ry="8" style="fill: rgb(204, 204, 204); stroke: rgb(187, 187, 187);"/>
        <ellipse cx="100" cy="78" rx="16" ry="8" style="fill: rgb(204, 204, 204); stroke: rgb(187, 187, 187);"/>
      </g>
    </symbol>
    <bx:grid x="-20" y="-20" width="10" height="10"/>
    <symbol id="cpu" viewBox="0 0 140 100">
      <g transform="matrix(1, 0, 0, 1, 0, 0)">
        <path d="M 36.667 40 L 63.333 40 C 66.667 40 70 43.333 70 46.667 L 70 73.333 C 70 76.667 67.015 80 63.333 80 L 36.667 80 C 33.333 80 30 76.667 30 73.333 L 30 46.667 C 30 46.667 30 46.667 30 46.667 C 30 43.333 33.333 40 36.667 40 Z" style="fill: rgb(208, 208, 208);"/>
        <path d="M 40 45 L 60 45 C 62.5 45 65 47.5 65 50 L 65 70 C 65 72.5 62.761 75 60 75 L 40 75 C 37.5 75 35 72.5 35 70 L 35 50 C 35 50 35 50 35 50 C 35 47.5 37.5 45 40 45 Z" style="fill: none; stroke-width: 2; stroke: rgb(170, 170, 170);"/>
        <line x1="72" y1="50" x2="80" y2="50" style="stroke: rgb(208, 208, 208); stroke-width: 2; stroke-linecap: round;"/>
        <line x1="72" y1="60" x2="80" y2="60" style="stroke: rgb(208, 208, 208); stroke-width: 2; stroke-linecap: round;"/>
        <line x1="72" y1="70" x2="80" y2="70" style="stroke: rgb(208, 208, 208); stroke-width: 2; stroke-linecap: round;"/>
        <line x1="20" y1="50" x2="28" y2="50" style="stroke: rgb(208, 208, 208); stroke-width: 2; stroke-linecap: round;"/>
        <line x1="20" y1="60" x2="28" y2="60" style="stroke: rgb(208, 208, 208); stroke-width: 2; stroke-linecap: round;"/>
        <line x1="20" y1="70" x2="28" y2="70" style="stroke: rgb(208, 208, 208); stroke-width: 2; stroke-linecap: round;"/>
        <line x1="40" y1="30" x2="40" y2="38" style="stroke: rgb(208, 208, 208); stroke-width: 2; stroke-linecap: round;"/>
        <line x1="50" y1="30" x2="50" y2="38" style="stroke: rgb(208, 208, 208); stroke-width: 2; stroke-linecap: round;"/>
        <line x1="60" y1="30" x2="60" y2="38" style="stroke: rgb(208, 208, 208); stroke-width: 2; stroke-linecap: round;"/>
        <line x1="40" y1="82" x2="40" y2="90" style="stroke: rgb(208, 208, 208); stroke-width: 2; stroke-linecap: round;"/>
        <line x1="50" y1="82" x2="50" y2="90" style="stroke: rgb(208, 208, 208); stroke-width: 2; stroke-linecap: round;"/>
        <line x1="60" y1="82" x2="60" y2="90" style="stroke: rgb(208, 208, 208); stroke-width: 2; stroke-linecap: round;"/>
      </g>
    </symbol>
  </defs>
  <use width="140" height="80" transform="matrix(1, 0, 0, 1, 20, 250)" xlink:href="#process1"/>
  <use width="140" height="80" transform="matrix(1, 0, 0, 1, 150, 250)" xlink:href="#process2"/>
  <use width="140" height="80" transform="matrix(1, 0, 0, 1, 280, 250)" xlink:href="#process2"/>
  <use width="140" height="80" transform="matrix(1, 0, 0, 1, 410, 250)" xlink:href="#process2"/>
  <text x="140.006" y="197.015" style="fill: rgb(51, 51, 51); font-family: sans-serif; font-size: 20px; white-space: pre;" transform="matrix(1, 0, 0, 1.000001, -79.99218, 99.992004)">INPUT</text>
  <text x="257.232" y="197.015" style="fill: rgb(51, 51, 51); font-family: sans-serif; font-size: 20px; white-space: pre;" transform="matrix(1, 0, 0, 1.000001, -80.000023, 99.992004)">CHANGE</text>
  <text x="387.779" y="197.015" style="fill: rgb(51, 51, 51); font-family: sans-serif; font-size: 20px; white-space: pre;" transform="matrix(1, 0, 0, 1.000001, -79.984398, 99.992004)">RENDER</text>
  <text x="518.904" y="197.015" style="fill: rgb(51, 51, 51); font-family: sans-serif; font-size: 20px; white-space: pre;" transform="matrix(1, 0, 0, 1.000001, -79.99221, 99.992004)">OUTPUT</text>
  <use width="100" height="141" transform="matrix(1, 0, 0, 1, 150.000031, 380)" xlink:href="#document"/>
  <use width="100" height="141" transform="matrix(1, 0, 0, 1, 280.000031, 380)" xlink:href="#document"/>
  <use width="100" height="141" transform="matrix(1, 0, 0, 1, 100.000008, 40.000008)" xlink:href="#model"/>
  <use width="100" height="141" transform="matrix(1, 0, 0, 1, 230.000031, 40.000008)" xlink:href="#model"/>
  <use width="100" height="141" transform="matrix(1, 0, 0, 1, 359.999969, 40.000008)" xlink:href="#document"/>
  <text x="109.99" y="28.015" style="fill: rgb(51, 51, 51); font-family: sans-serif; font-size: 20px; white-space: pre;"><tspan style="font-size: 20px; word-spacing: 0px;">Model V</tspan><tspan style="font-size: 12px; word-spacing: 0px;">1</tspan></text>
  <text x="239.99" y="28.015" style="fill: rgb(51, 51, 51); font-family: sans-serif; font-size: 20px; white-space: pre;"><tspan style="font-size: 20px; word-spacing: 0px;">Model V</tspan><tspan style="font-size: 12px; word-spacing: 0px;">2</tspan></text>
  <text x="378.905" y="28.015" style="fill: rgb(51, 51, 51); font-family: sans-serif; font-size: 20px; white-space: pre;">Artifact</text>
  <text x="29.99" y="548.188" style="fill: rgb(51, 51, 51); font-family: sans-serif; font-size: 20px; white-space: pre;"><tspan style="font-size: 20px; word-spacing: 0px;">Model V</tspan><tspan style="font-size: 12px; word-spacing: 0px;">1</tspan></text>
  <use width="100" height="141" transform="matrix(1, 0, 0, 1, 19.999992, 380)" xlink:href="#document"/>
  <use width="100" height="141" transform="matrix(1, 0, 0, 1, 450.000031, 380)" xlink:href="#document"/>
  <g transform="matrix(1, 0, 0, 1, -79.999992, 50.000008)">
    <polygon style="fill: rgb(0, 0, 255); stroke: rgb(0, 0, 255);" points="140 300 150 290 160 300"/>
    <line style="stroke-width: 2; stroke-linecap: round; fill: rgb(0, 0, 255); stroke: rgb(0, 0, 255);" x1="150" y1="320" x2="150" y2="300"/>
  </g>
  <line style="stroke-width: 2; stroke: rgb(208, 208, 208); stroke-linecap: round;" x1="65.041" y1="296.407" x2="65.041" y2="296.407"/>
  <g transform="matrix(1, 0, 0, 1, 50.000084, 50.00032)">
    <polygon style="fill: rgb(0, 0, 255); stroke: rgb(0, 0, 255);" points="140 300 150 290 160 300"/>
    <line style="stroke-width: 2; stroke-linecap: round; fill: rgb(0, 0, 255); stroke: rgb(0, 0, 255);" x1="150" y1="320" x2="150" y2="300"/>
  </g>
  <g transform="matrix(1, 0, 0, 1, 180.000061, 50.00032)">
    <polygon style="fill: rgb(0, 0, 255); stroke: rgb(0, 0, 255);" points="140 300 150 290 160 300"/>
    <line style="stroke-width: 2; stroke-linecap: round; fill: rgb(0, 0, 255); stroke: rgb(0, 0, 255);" x1="150" y1="320" x2="150" y2="300"/>
  </g>
  <g transform="matrix(1, 0, 0, -1, 350.000092, 660)">
    <polygon style="fill: rgb(0, 0, 255); stroke: rgb(0, 0, 255);" points="140 300 150 290 160 300"/>
    <line style="stroke-width: 2; stroke-linecap: round; fill: rgb(0, 0, 255); stroke: rgb(0, 0, 255);" x1="150" y1="320" x2="150" y2="300"/>
  </g>
  <text x="289.443" y="548.203" style="fill: rgb(51, 51, 51); font-family: sans-serif; font-size: 20px; white-space: pre;">Template</text>
  <text x="468.91" y="548.203" style="fill: rgb(51, 51, 51); font-family: sans-serif; font-size: 20px; white-space: pre;">Artifact</text>
  <text x="164.99" y="548" style="fill: rgb(51, 51, 51); font-family: sans-serif; font-size: 20px; white-space: pre;">Change</text>
  <text x="40.005" y="368.015" style="fill: rgb(0, 0, 255); font-family: sans-serif; font-size: 20px; white-space: pre;">-i</text>
  <text x="120.005" y="315.671" style="fill: rgb(0, 0, 255); font-family: sans-serif; font-size: 20px; white-space: pre;" transform="matrix(0.999999, 0, 0, 1, 50.000114, 52.343758)">-c</text>
  <text x="120.005" y="315.671" style="fill: rgb(0, 0, 255); font-family: sans-serif; font-size: 20px; white-space: pre;" transform="matrix(0.999999, 0, 0, 1, 180.000107, 52.343758)">-t</text>
  <text x="120.005" y="315.671" style="fill: rgb(0, 0, 255); font-family: sans-serif; font-size: 20px; white-space: pre;" transform="matrix(0.999999, 0, 0, 1, 350.000122, 52.343758)">-o</text>
  <path d="M 150.118 190 C 176.146 190 197.54 209.794 200 235.118 L 190.212 240 L 179.734 234.773 C 177.255 220.697 164.938 210 150.118 210 C 133.51 210 120.047 223.43 120.047 240 L 100 240 C 100 212.385 122.439 190 150.118 190 Z" style="fill: rgb(216, 216, 216);"/>
  <path d="M 280.118 190 C 306.146 190 327.54 209.794 330 235.118 L 320.212 240 L 309.734 234.773 C 307.255 220.697 294.938 210 280.118 210 C 263.51 210 250.047 223.43 250.047 240 L 230 240 C 230 212.385 252.439 190 280.118 190 Z" style="fill: rgb(216, 216, 216);"/>
  <path d="M 410.118 190 C 436.146 190 457.54 209.794 460 235.118 L 450.212 240 L 439.734 234.773 C 437.255 220.697 424.938 210 410.118 210 C 393.51 210 380.047 223.43 380.047 240 L 360 240 C 360 212.385 382.439 190 410.118 190 Z" style="fill: rgb(216, 216, 216);"/>
</svg>